<?xml version="1.0" encoding="UTF-8"?>
<svg version="1.1" xmlns="http://www.w3.org/2000/svg" width="64" height="64">
<path d="M0 0 C2.375 -0.125 2.375 -0.125 5 0 C5.66 0.66 6.32 1.32 7 2 C8.9931567 2.02375926 8.9931567 2.02375926 11.125 1.625 C12.40375 1.41875 13.6825 1.2125 15 1 C15.82638376 3.89234315 16 5.88742431 16 9 C16.804375 9.268125 17.60875 9.53625 18.4375 9.8125 C19.283125 10.204375 20.12875 10.59625 21 11 C21.495 12.485 21.495 12.485 22 14 C19.03 14.66 16.06 15.32 13 16 C12.67 17.32 12.34 18.64 12 20 C14.90600261 21.25664978 16.79604584 22 20 22 C19.56354727 26.94646432 17.14142728 29.30882294 14 33 C13.14720662 35.21735439 13.14720662 35.21735439 13 37 C13.99 37.66 14.98 38.32 16 39 C16 39.99 16 40.98 16 42 C14.35 41.34 12.7 40.68 11 40 C9.68 41.32 8.36 42.64 7 44 C7.7734375 44.86625 7.7734375 44.86625 8.5625 45.75 C10 48 10 48 9.6875 50.25 C9.460625 50.8275 9.23375 51.405 9 52 C7.62437146 50.71034824 6.29233607 49.37310707 5 48 C5 47.34 5 46.68 5 46 C4.34 46 3.68 46 3 46 C2.87882812 46.83144531 2.75765625 47.66289063 2.6328125 48.51953125 C2.46523438 49.60621094 2.29765625 50.69289062 2.125 51.8125 C1.96257813 52.89144531 1.80015625 53.97039063 1.6328125 55.08203125 C1 58 1 58 -1 61 C-4.125 61.1875 -4.125 61.1875 -7 61 C-7.18125931 60.45764709 -7.36251862 59.91529419 -7.54927063 59.35650635 C-9.43857696 53.70828496 -11.33822544 48.06361897 -13.24389648 42.42089844 C-13.95358431 40.31502101 -14.66063709 38.20825365 -15.36499023 36.10058594 C-16.37831981 33.0698807 -17.40110643 30.04251036 -18.42578125 27.015625 C-18.73840408 26.07382385 -19.05102692 25.13202271 -19.37312317 24.16168213 C-19.67320786 23.28107117 -19.97329254 22.40046021 -20.2824707 21.49316406 C-20.54228226 20.72039124 -20.80209381 19.94761841 -21.06977844 19.15142822 C-22.08687643 16.79907109 -23.46164892 15.0371113 -25 13 C-25 12.34 -25 11.68 -25 11 C-18.73 11 -12.46 11 -6 11 C-6.33 8.69 -6.66 6.38 -7 4 C-4.69 4.33 -2.38 4.66 0 5 C0 3.35 0 1.7 0 0 Z M-9 13 C-10.29317875 17.40253928 -9.61359701 20.10316482 -8.12890625 24.39453125 C-7.71962891 25.59658203 -7.31035156 26.79863281 -6.88867188 28.03710938 C-6.4468753 29.29566447 -6.00481467 30.5541269 -5.5625 31.8125 C-5.12324382 33.09011537 -4.68508075 34.36810712 -4.24804688 35.64648438 C-3.17606351 38.76819418 -2.09305946 41.88562037 -1 45 C-0.01 44.67 0.98 44.34 2 44 C2.33 42.35 2.66 40.7 3 39 C2.34 39 1.68 39 1 39 C1 38.34 1 37.68 1 37 C1.99 37 2.98 37 4 37 C4.66 34.36 5.32 31.72 6 29 C4.35 28.01 2.7 27.02 1 26 C1.99 25.34 2.98 24.68 4 24 C4 23.01 4 22.02 4 21 C5.32 21.33 6.64 21.66 8 22 C7.88693303 20.04105639 7.88693303 20.04105639 7 18 C2.5645765 15.08925333 -2.04250858 16.20075302 -7 17 C-7 15.68 -7 14.36 -7 13 C-7.66 13 -8.32 13 -9 13 Z M8 32 C7.34 33.65 6.68 35.3 6 37 C6.99 37.33 7.98 37.66 9 38 C9.33 36.35 9.66 34.7 10 33 C9.34 32.67 8.68 32.34 8 32 Z " fill="#A75962" transform="translate(35,3)"/>
<path d="M0 0 C2.375 -0.125 2.375 -0.125 5 0 C5.66 0.66 6.32 1.32 7 2 C8.9931567 2.02375926 8.9931567 2.02375926 11.125 1.625 C13.043125 1.315625 13.043125 1.315625 15 1 C15.82638376 3.89234315 16 5.88742431 16 9 C16.804375 9.268125 17.60875 9.53625 18.4375 9.8125 C19.283125 10.204375 20.12875 10.59625 21 11 C21.33 11.99 21.66 12.98 22 14 C19.03 14.66 16.06 15.32 13 16 C12.67 17.32 12.34 18.64 12 20 C14.90600261 21.25664978 16.79604584 22 20 22 C19.56634449 26.91476244 17.52640222 29.63032676 14 33 C10.6875 33.375 10.6875 33.375 8 33 C7.34 34.32 6.68 35.64 6 37 C5.34 37 4.68 37 4 37 C4.875 31.25 4.875 31.25 6 29 C5.195625 28.71125 4.39125 28.4225 3.5625 28.125 C1 27 1 27 0 25 C1.32 24.67 2.64 24.34 4 24 C4 23.01 4 22.02 4 21 C4.99 21 5.98 21 7 21 C7 20.34 7 19.68 7 19 C2.35150485 16.6007767 -1.91086074 16.80042591 -7 17 C-6.7215625 15.7315625 -6.7215625 15.7315625 -6.4375 14.4375 C-5.96470368 10.7226718 -6.33935369 7.67025727 -7 4 C-4.69 4.33 -2.38 4.66 0 5 C0 3.35 0 1.7 0 0 Z " fill="#ED9C5B" transform="translate(35,3)"/>
<path d="M0 0 C0.99 0 1.98 0 3 0 C3 1.32 3 2.64 3 4 C3.99 4.66 4.98 5.32 6 6 C6 6.99 6 7.98 6 9 C4.35 8.34 2.7 7.68 1 7 C-0.32 8.32 -1.64 9.64 -3 11 C-2.484375 11.5775 -1.96875 12.155 -1.4375 12.75 C0 15 0 15 -0.3125 17.25 C-0.539375 17.8275 -0.76625 18.405 -1 19 C-2.37562854 17.71034824 -3.70766393 16.37310707 -5 15 C-5 14.34 -5 13.68 -5 13 C-5.66 13 -6.32 13 -7 13 C-7.12117188 13.83144531 -7.24234375 14.66289063 -7.3671875 15.51953125 C-7.61855469 17.14955078 -7.61855469 17.14955078 -7.875 18.8125 C-8.03742187 19.89144531 -8.19984375 20.97039063 -8.3671875 22.08203125 C-9 25 -9 25 -11 28 C-12.32 28 -13.64 28 -15 28 C-15.08159574 23.83861737 -14.98248524 20.0527516 -14 16 C-14.99 16 -15.98 16 -17 16 C-16.3125 14.0625 -16.3125 14.0625 -15 12 C-12.56968481 11.27090544 -10.52838375 11 -8 11 C-8.33 8.69 -8.66 6.38 -9 4 C-3.25 3.875 -3.25 3.875 -1 5 C-0.67 3.35 -0.34 1.7 0 0 Z " fill="#83A077" transform="translate(45,36)"/>
<path d="M0 0 C1.65 0 3.3 0 5 0 C4.01 0.33 3.02 0.66 2 1 C1.26676204 3.01508358 1.26676204 3.01508358 1 5 C3.90600261 6.25664978 5.79604584 7 9 7 C8.56634449 11.91476244 6.52640222 14.63032676 3 18 C-0.3125 18.375 -0.3125 18.375 -3 18 C-3.66 19.32 -4.32 20.64 -5 22 C-5.66 22 -6.32 22 -7 22 C-6.125 16.25 -6.125 16.25 -5 14 C-5.804375 13.71125 -6.60875 13.4225 -7.4375 13.125 C-10 12 -10 12 -11 10 C-9.68 9.67 -8.36 9.34 -7 9 C-7 8.01 -7 7.02 -7 6 C-6.01 6 -5.02 6 -4 6 C-3.67 5.01 -3.34 4.02 -3 3 C-2.01 3 -1.02 3 0 3 C0 2.01 0 1.02 0 0 Z " fill="#E59859" transform="translate(46,18)"/>
<path d="M0 0 C1.381875 0.185625 2.76375 0.37125 4.1875 0.5625 C7.69618729 0.96096291 10.56622781 0.9969016 14 0 C14.33 0.99 14.66 1.98 15 3 C18.00847418 4.22520264 18.00847418 4.22520264 21 5 C21 5.66 21 6.32 21 7 C17.86198034 9.54030163 15.80715017 10.92238941 11.75 11.3125 C9 11 9 11 7 10 C7 9.34 7 8.68 7 8 C5.02 8.33 3.04 8.66 1 9 C0.67 6.03 0.34 3.06 0 0 Z " fill="#DC6E3B" transform="translate(28,7)"/>
<path d="M0 0 C0.99 0 1.98 0 3 0 C3 1.32 3 2.64 3 4 C3.99 4.66 4.98 5.32 6 6 C6 6.99 6 7.98 6 9 C3.525 8.01 3.525 8.01 1 7 C-0.32 8.32 -1.64 9.64 -3 11 C-2.484375 11.5775 -1.96875 12.155 -1.4375 12.75 C0 15 0 15 -0.3125 17.25 C-0.539375 17.8275 -0.76625 18.405 -1 19 C-3.75482198 16.68950414 -4.89772609 15.42614128 -5.75 11.875 C-6 9 -6 9 -6 7 C-6.99 6.67 -7.98 6.34 -9 6 C-9 5.34 -9 4.68 -9 4 C-3.25 3.875 -3.25 3.875 -1 5 C-0.67 3.35 -0.34 1.7 0 0 Z " fill="#8EAB83" transform="translate(45,36)"/>
<path d="M0 0 C0.928125 0.20625 1.85625 0.4125 2.8125 0.625 C2.0625 2.5625 2.0625 2.5625 0.8125 4.625 C-1.3125 5.375 -1.3125 5.375 -3.1875 5.625 C-2.5275 5.625 -1.8675 5.625 -1.1875 5.625 C-0.8575 5.955 -0.5275 6.285 -0.1875 6.625 C1.1325 5.965 2.4525 5.305 3.8125 4.625 C3.8125 5.615 3.8125 6.605 3.8125 7.625 C2.8125 8.625 2.8125 8.625 -0.25 8.6875 C-1.219375 8.666875 -2.18875 8.64625 -3.1875 8.625 C-3.8475 9.945 -4.5075 11.265 -5.1875 12.625 C-5.8475 12.625 -6.5075 12.625 -7.1875 12.625 C-7.10056859 10.83241442 -6.99239496 9.04084856 -6.875 7.25 C-6.78798828 5.75339844 -6.78798828 5.75339844 -6.69921875 4.2265625 C-6.53035156 3.36804688 -6.36148438 2.50953125 -6.1875 1.625 C-3.1875 -0.375 -3.1875 -0.375 0 0 Z " fill="#CD6435" transform="translate(46.1875,27.375)"/>
<path d="M0 0 C1.32 0 2.64 0 4 0 C4 0.99 4 1.98 4 3 C4.99 3.33 5.98 3.66 7 4 C7.33 5.65 7.66 7.3 8 9 C9.65 9.33 11.3 9.66 13 10 C9.25 11.125 9.25 11.125 7 10 C7 9.34 7 8.68 7 8 C5.02 8.33 3.04 8.66 1 9 C0.67 6.03 0.34 3.06 0 0 Z " fill="#DF804E" transform="translate(28,7)"/>
<path d="M0 0 C0.94875 0.515625 1.8975 1.03125 2.875 1.5625 C4.421875 2.2740625 4.421875 2.2740625 6 3 C6.66 2.67 7.32 2.34 8 2 C8.66 2.33 9.32 2.66 10 3 C10.125 7.75 10.125 7.75 9 10 C6.625 9.8125 6.625 9.8125 4 9 C2.8125 6.5 2.8125 6.5 2 4 C1.34 3.67 0.68 3.34 0 3 C0 2.01 0 1.02 0 0 Z " fill="#DC6D3C" transform="translate(32,7)"/>
<path d="M0 0 C-0.32324499 2.99001613 -0.54806138 4.56420205 -2.75 6.6875 C-5.10357033 8.06041602 -7.43941653 9.07534486 -10 10 C-10 9.34 -10 8.68 -10 8 C-10.66 8 -11.32 8 -12 8 C-11.67 7.01 -11.34 6.02 -11 5 C-11 5.66 -11 6.32 -11 7 C-9.00016466 6.20882096 -9.00016466 6.20882096 -7 5 C-6.67 4.01 -6.34 3.02 -6 2 C-3 0 -3 0 0 0 Z " fill="#E38548" transform="translate(55,25)"/>
<path d="M0 0 C0.99 0.33 1.98 0.66 3 1 C2.01 2.485 2.01 2.485 1 4 C1.515625 4.5775 2.03125 5.155 2.5625 5.75 C4 8 4 8 3.6875 10.25 C3.460625 10.8275 3.23375 11.405 3 12 C0.2678375 9.70850887 -0.90028101 8.35613925 -1.875 4.875 C-1.91625 3.92625 -1.9575 2.9775 -2 2 C-1.34 1.34 -0.68 0.68 0 0 Z " fill="#89AB83" transform="translate(41,43)"/>
<path d="M0 0 C1.65 0 3.3 0 5 0 C5.66 1.32 6.32 2.64 7 4 C4.69 4.66 2.38 5.32 0 6 C0 4.02 0 2.04 0 0 Z " fill="#EB9959" transform="translate(35,3)"/>
<path d="M0 0 C0.66 0.33 1.32 0.66 2 1 C1.01 4.96 0.02 8.92 -1 13 C-1.66 13 -2.32 13 -3 13 C-4.23593891 9.29218328 -3.5678132 8.32489747 -2.0625 4.8125 C-1.68222656 3.91144531 -1.30195312 3.01039062 -0.91015625 2.08203125 C-0.60980469 1.39496094 -0.30945312 0.70789062 0 0 Z " fill="#A55D63" transform="translate(38,42)"/>
<path d="M0 0 C1.32 0.33 2.64 0.66 4 1 C5.125 4.75 5.125 4.75 4 7 C2.68 7 1.36 7 0 7 C0 4.69 0 2.38 0 0 Z " fill="#8C776A" transform="translate(30,57)"/>
<path d="M0 0 C2.625 0.375 2.625 0.375 5 1 C5.80967438 3.91482778 6.21845993 5.46113217 5.0625 8.3125 C4.5365625 9.1478125 4.5365625 9.1478125 4 10 C3.34 9.34 2.68 8.68 2 8 C2.66 8 3.32 8 4 8 C4 6.35 4 4.7 4 3 C3.38125 3.20625 2.7625 3.4125 2.125 3.625 C1.42375 3.74875 0.7225 3.8725 0 4 C-0.66 3.34 -1.32 2.68 -2 2 C-1.34 1.34 -0.68 0.68 0 0 Z " fill="#DB864C" transform="translate(38,7)"/>
<path d="M0 0 C-0.66 1.32 -1.32 2.64 -2 4 C-4.97 3.505 -4.97 3.505 -8 3 C-8 2.01 -8 1.02 -8 0 C-5.13822943 -1.43088528 -3.06624227 -0.59991697 0 0 Z " fill="#DA6B38" transform="translate(49,28)"/>
<path d="M0 0 C1.65 0 3.3 0 5 0 C4.01 0.33 3.02 0.66 2 1 C0.77030122 4.51190809 0.77030122 4.51190809 0 8 C-0.99 7.67 -1.98 7.34 -3 7 C-3 5.68 -3 4.36 -3 3 C-2.01 3 -1.02 3 0 3 C0 2.01 0 1.02 0 0 Z " fill="#C39C78" transform="translate(46,18)"/>
<path d="M0 0 C1.32 0.33 2.64 0.66 4 1 C3.01 1.495 3.01 1.495 2 2 C1.34227572 5.02934491 1.34227572 5.02934491 1 8 C-0.65 7.01 -2.3 6.02 -4 5 C-2.68 4.34 -1.36 3.68 0 3 C0 2.01 0 1.02 0 0 Z " fill="#F0A25A" transform="translate(39,24)"/>
<path d="M0 0 C1.5 1.3125 1.5 1.3125 3 3 C3 3.99 3 4.98 3 6 C4.65 6.33 6.3 6.66 8 7 C4.25 8.125 4.25 8.125 2 7 C2 6.34 2 5.68 2 5 C1.01 4.67 0.02 4.34 -1 4 C-0.67 2.68 -0.34 1.36 0 0 Z " fill="#E47A42" transform="translate(33,10)"/>
<path d="M0 0 C-0.33 1.98 -0.66 3.96 -1 6 C-2.32 5.34 -3.64 4.68 -5 4 C-4.67 3.01 -4.34 2.02 -4 1 C-2 0 -2 0 0 0 Z " fill="#D15A35" transform="translate(42,11)"/>
<path d="M0 0 C0.33 1.65 0.66 3.3 1 5 C0.01 5 -0.98 5 -2 5 C-2.66 3.68 -3.32 2.36 -4 1 C-2 0 -2 0 0 0 Z " fill="#80A376" transform="translate(44,49)"/>
<path d="M0 0 C0.66 0.33 1.32 0.66 2 1 C1.34 2.98 0.68 4.96 0 7 C-0.66 7 -1.32 7 -2 7 C-1.125 1.125 -1.125 1.125 0 0 Z " fill="#A75961" transform="translate(41,33)"/>
<path d="M0 0 C0.33 0.66 0.66 1.32 1 2 C2.98 1.34 4.96 0.68 7 0 C7 0.99 7 1.98 7 3 C5.35 3.66 3.7 4.32 2 5 C2 4.34 2 3.68 2 3 C1.34 3 0.68 3 0 3 C0 2.01 0 1.02 0 0 Z " fill="#E69146" transform="translate(43,30)"/>
</svg>
